<svg width="25" height="25" viewBox="0 0 25 25" fill="none" xmlns="http://www.w3.org/2000/svg">
<g clip-path="url(#clip0_397_1621)">
<path d="M21.3426 17.6449C21.0099 18.4135 20.6161 19.1211 20.1598 19.7715C19.5378 20.6583 19.0286 21.2721 18.6361 21.613C18.0277 22.1724 17.3759 22.459 16.6779 22.4753C16.1768 22.4753 15.5725 22.3327 14.8691 22.0434C14.1633 21.7555 13.5148 21.613 12.9217 21.613C12.2998 21.613 11.6327 21.7555 10.9193 22.0434C10.2047 22.3327 9.62904 22.4834 9.18892 22.4984C8.51957 22.5269 7.85239 22.2322 7.18644 21.613C6.76139 21.2422 6.22974 20.6067 5.59285 19.7063C4.90951 18.7449 4.34772 17.63 3.9076 16.3589C3.43624 14.986 3.19995 13.6565 3.19995 12.3694C3.19995 10.8951 3.51853 9.62345 4.15665 8.55784C4.65815 7.70191 5.32533 7.02672 6.16035 6.53105C6.99537 6.03539 7.89761 5.7828 8.86925 5.76664C9.4009 5.76664 10.0981 5.93109 10.9645 6.25429C11.8284 6.57858 12.3832 6.74303 12.6264 6.74303C12.8082 6.74303 13.4245 6.55074 14.4692 6.16738C15.4571 5.81186 16.2909 5.66466 16.974 5.72264C18.8249 5.87202 20.2155 6.60167 21.1402 7.91619C19.4849 8.9192 18.666 10.324 18.6823 12.1262C18.6972 13.53 19.2065 14.6981 20.2073 15.6256C20.6609 16.0561 21.1674 16.3888 21.731 16.6251C21.6087 16.9795 21.4797 17.319 21.3426 17.6449ZM17.0975 0.940369C17.0975 2.04062 16.6956 3.06792 15.8944 4.01878C14.9275 5.14917 13.758 5.80236 12.4898 5.69929C12.4736 5.56729 12.4642 5.42837 12.4642 5.28239C12.4642 4.22615 12.924 3.09576 13.7406 2.17152C14.1483 1.70356 14.6667 1.31445 15.2955 1.00406C15.9229 0.698295 16.5163 0.529201 17.0744 0.500244C17.0907 0.647331 17.0975 0.794426 17.0975 0.940355V0.940369Z" fill="black"/>
</g>
<defs>
<clipPath id="clip0_397_1621">
<rect width="24" height="24" fill="white" transform="translate(0.5 0.5)"/>
</clipPath>
</defs>
</svg>
