<svg width="32" height="32" viewBox="0 0 32 32" fill="none" xmlns="http://www.w3.org/2000/svg">
<g clip-path="url(#clip0_303_3842)">
<path d="M16 32C24.8366 32 32 24.8366 32 16C32 7.16344 24.8366 0 16 0C7.16344 0 0 7.16344 0 16C0 24.8366 7.16344 32 16 32Z" fill="#6DA544"/>
<path d="M16.0006 6.26123L29.218 16.0004L16.0006 25.7395L2.7832 16.0004L16.0006 6.26123Z" fill="#FFDA44"/>
<path d="M15.9998 21.5649C19.0733 21.5649 21.5649 19.0733 21.5649 15.9998C21.5649 12.9262 19.0733 10.4346 15.9998 10.4346C12.9262 10.4346 10.4346 12.9262 10.4346 15.9998C10.4346 19.0733 12.9262 21.5649 15.9998 21.5649Z" fill="#F0F0F0"/>
<path d="M13.2173 15.6528C12.2496 15.6528 11.3156 15.8 10.4365 16.0731C10.4755 19.1131 12.9507 21.5659 16 21.5659C17.8855 21.5659 19.5507 20.6273 20.5574 19.1929C18.8351 17.0368 16.185 15.6528 13.2173 15.6528Z" fill="#0052B4"/>
<path d="M21.4619 17.0665C21.5289 16.7213 21.565 16.3651 21.565 16.0003C21.565 12.9266 19.0734 10.4351 15.9999 10.4351C13.7065 10.4351 11.7377 11.8226 10.8857 13.8037C11.6389 13.6477 12.4186 13.5655 13.2173 13.5655C16.4496 13.5654 19.3737 14.9091 21.4619 17.0665Z" fill="#0052B4"/>
</g>
<defs>
<clipPath id="clip0_303_3842">
<rect width="32" height="32" fill="white"/>
</clipPath>
</defs>
</svg>
