<svg width="170" height="131" viewBox="0 0 170 131" fill="none" xmlns="http://www.w3.org/2000/svg">
<g clip-path="url(#clip0_193_2970)">
<path d="M151.568 130.264L145.843 112.963C145.843 112.963 152.14 119.269 152.14 124.443L151.009 112.478C151.009 112.478 154.239 116.843 153.916 123.473C153.593 130.102 151.568 130.264 151.568 130.264Z" fill="#E7E8F0"/>
<path d="M28.6282 114.51L23.041 97.6248C23.041 97.6248 29.1866 103.779 29.1866 108.829L28.0835 97.1514C28.0835 97.1514 31.2351 101.412 30.9199 107.882C30.6048 114.353 28.6282 114.51 28.6282 114.51Z" fill="#E7E8F0"/>
<path d="M115.834 122.302C115.844 133.41 93.8452 129.993 66.914 130.016C39.9829 130.04 18.3172 133.494 18.3076 122.386C18.298 111.279 40.2884 108.844 67.2196 108.821C94.1507 108.797 115.824 111.195 115.834 122.302Z" fill="#E7E8F0"/>
<path d="M96.9597 107.301H93.4388L91.7632 93.7009H96.9597V107.301Z" fill="#FDA29B"/>
<path d="M90.5327 106.294H97.7141V110.576H86.6484V110.184C86.6484 109.152 87.0577 108.163 87.7861 107.433C88.5146 106.704 89.5025 106.294 90.5327 106.294Z" fill="#313854"/>
<path d="M122.839 127.375H119.318L117.643 113.774H122.839V127.375Z" fill="#FDA29B"/>
<path d="M116.412 126.367H123.594V130.649H112.528V130.257C112.528 129.226 112.937 128.236 113.666 127.507C114.394 126.777 115.382 126.367 116.412 126.367Z" fill="#313854"/>
<path d="M139.08 86.9705C139.323 86.6748 139.499 86.3293 139.595 85.9583C139.69 85.5872 139.704 85.1997 139.634 84.823C139.564 84.4462 139.412 84.0895 139.189 83.7778C138.967 83.4661 138.678 83.2071 138.345 83.019L130.168 49.6583L124.939 51.9112L134.665 84.1682C134.387 84.75 134.332 85.4139 134.509 86.0341C134.687 86.6542 135.086 87.1875 135.63 87.5329C136.174 87.8783 136.826 88.0118 137.462 87.9082C138.097 87.8045 138.673 87.4709 139.08 86.9705Z" fill="#FDA29B"/>
<path d="M90.9712 38.7555C90.8013 39.1423 90.7182 39.5615 90.7279 39.9837C90.7377 40.4058 90.84 40.8207 91.0276 41.1989C91.2152 41.5771 91.4836 41.9095 91.8138 42.1728C92.1441 42.436 92.5282 42.6237 92.9391 42.7225L99.1449 53.8493L102.919 50.1935L96.5053 40.3947C96.6265 39.694 96.4862 38.9735 96.111 38.3697C95.7358 37.7659 95.1518 37.3208 94.4697 37.1188C93.7876 36.9167 93.0546 36.9717 92.4099 37.2734C91.7651 37.575 91.2532 38.1024 90.9712 38.7555Z" fill="#FDA29B"/>
<path d="M111.844 83.5108L117.367 125.023L124.241 123.606C124.241 123.606 123.23 93.3733 126.667 89.7287C130.104 86.0841 122.246 79.6993 122.246 79.6993L111.844 83.5108Z" fill="#313854"/>
<path d="M114.127 72.0765L111.59 75.8879C111.59 75.8879 92.0534 67.7571 92.0534 80.7157C92.0534 93.6743 90.9354 102.469 90.5311 103.076C90.1267 103.683 95.2091 105.26 97.6353 104.855C97.6353 104.855 100.628 83.9633 100.426 82.7484C100.426 82.7484 119.591 92.1584 123.23 91.3485C126.869 90.5386 127.729 87.6715 128.336 86.0517C128.942 84.4318 128.082 71.5683 128.082 71.5683L115.951 67.861L114.127 72.0765Z" fill="#313854"/>
<path d="M125.346 44.2007L124.821 45.2023C124.821 45.2023 111.082 59.6918 105.313 58.6459C99.5431 57.6 93.5403 45.0584 93.6411 44.5465C93.7419 44.0346 97.7794 43.9472 98.9953 42.3446C98.9953 42.3446 105.284 51.3784 105.829 51.9348C106.374 52.4912 113.84 42.5651 113.84 42.5651L120.036 40.8627L125.346 44.2007Z" fill="#C7CBDD"/>
<path d="M128.644 40.212C128.644 40.212 121.123 41.0811 120.834 41.0811C120.544 41.0811 120.036 40.8631 120.036 40.8631L113.746 48.3236C113.746 48.3236 110.468 74.798 111.336 74.3634C112.204 73.9289 128.21 76.4245 128.355 75.2658C128.499 74.107 128.21 68.3129 128.644 68.0232C129.078 67.7335 136.165 49.7721 136.165 49.7721C136.165 49.7721 135.442 46.006 132.983 44.7024C130.524 43.3987 128.644 40.212 128.644 40.212Z" fill="#C7CBDD"/>
<path d="M133.851 47.3096L136.165 49.772C136.165 49.772 139.604 78.0679 137.723 78.937C135.843 79.8061 132.142 79.6993 132.142 79.6993L128.5 66.2849L133.851 47.3096Z" fill="#C7CBDD"/>
<path d="M121.417 38.4201C125.093 38.4201 128.074 35.4351 128.074 31.7529C128.074 28.0708 125.093 25.0858 121.417 25.0858C117.74 25.0858 114.759 28.0708 114.759 31.7529C114.759 35.4351 117.74 38.4201 121.417 38.4201Z" fill="#FDA29B"/>
<path d="M119.854 32.7933C119.764 31.4099 118.022 31.3625 116.637 31.3494C115.253 31.3363 113.598 31.3858 112.815 30.2427C112.297 29.4873 112.396 28.4386 112.824 27.6287C113.252 26.8187 113.955 26.1958 114.647 25.5966C116.433 24.0494 118.275 22.5146 120.42 21.5243C122.565 20.534 125.078 20.1339 127.303 20.9288C130.035 21.9053 133.729 26.932 134.048 29.82C134.367 32.708 133.215 35.6521 131.272 37.8102C129.329 39.9683 124.883 39.0976 122.085 39.8653C123.786 37.4541 122.664 33.0728 119.939 31.9468L119.854 32.7933Z" fill="#313854"/>
<path d="M60.5213 119.033C69.3478 119.033 76.5031 111.868 76.5031 103.028C76.5031 94.1887 69.3478 87.0229 60.5213 87.0229C51.6948 87.0229 44.5396 94.1887 44.5396 103.028C44.5396 111.868 51.6948 119.033 60.5213 119.033Z" fill="#7839EE"/>
<path d="M49.8482 85.8857C47.6332 85.8858 45.4657 85.243 43.608 84.035C41.7503 82.8271 40.282 81.1058 39.3808 79.0795L14.0207 21.885C13.1807 19.9904 12.7364 17.9438 12.7152 15.8709C12.6939 13.7981 13.0963 11.7428 13.8974 9.83134C14.6985 7.91993 15.8815 6.19278 17.3736 4.75607C18.8658 3.31936 20.6356 2.20344 22.5742 1.4769C24.5128 0.750354 26.5793 0.428542 28.6467 0.531243C30.7141 0.633944 32.7387 1.15899 34.596 2.0741C36.4533 2.98921 38.1042 4.27506 39.447 5.85261C40.7899 7.43015 41.7964 9.26606 42.4047 11.2475L60.7684 71.0643C61.2942 72.7765 61.4116 74.5883 61.1113 76.3541C60.811 78.12 60.1014 79.7907 59.0394 81.2321C57.9774 82.6735 56.5927 83.8453 54.9964 84.6535C53.4002 85.4617 51.6369 85.8837 49.8482 85.8857Z" fill="#7839EE"/>
</g>
<defs>
<clipPath id="clip0_193_2970">
<rect width="168.37" height="130" fill="white" transform="translate(0.814941 0.5)"/>
</clipPath>
</defs>
</svg>
