<svg width="183" height="151" viewBox="0 0 183 151" fill="none" xmlns="http://www.w3.org/2000/svg">
<defs>
<linearGradient id="paint0_linear_771_5352" x1="91.1832" y1="76.0597" x2="71.4672" y2="56.3152" gradientUnits="userSpaceOnUse">
<stop offset="0.1474"/>
<stop offset="0.1589" stop-color="#0C0C0C"/>
<stop offset="0.2098" stop-color="#3F3F3F"/>
<stop offset="0.2644" stop-color="#6D6D6D"/>
<stop offset="0.3216" stop-color="#949494"/>
<stop offset="0.3818" stop-color="#B5B5B5"/>
<stop offset="0.4461" stop-color="#D0D0D0"/>
<stop offset="0.5158" stop-color="#E5E5E5"/>
<stop offset="0.5938" stop-color="#F4F4F4"/>
<stop offset="0.6866" stop-color="#FCFCFC"/>
<stop offset="0.8327" stop-color="white"/>
</linearGradient>
<linearGradient id="paint1_linear_771_5352" x1="91.54" y1="4.02565" x2="111.107" y2="23.6207" gradientUnits="userSpaceOnUse">
<stop stop-color="#333333"/>
<stop offset="1" stop-color="white" stop-opacity="0"/>
</linearGradient>
</defs>
<path d="M72.5908 92.6616C70.9508 92.6616 69.5166 93.2597 68.3332 94.4431C67.1499 95.6265 66.5518 97.0542 66.5518 98.7007C66.5518 100.347 67.1499 101.775 68.3332 102.958C69.5166 104.142 70.9444 104.74 72.5908 104.74C74.2373 104.74 75.665 104.142 76.8484 102.958C78.0318 101.775 78.6299 100.347 78.6299 98.7007C78.6299 97.0607 78.0318 95.6265 76.8484 94.4431C75.665 93.2597 74.2308 92.6616 72.5908 92.6616Z" fill="white"/>
<path d="M72.5909 108.431C71.1953 108.431 70.0055 108.894 69.0665 109.801C68.1146 110.721 67.6259 111.93 67.6259 113.396V145.154C67.6259 146.563 68.1018 147.753 69.0472 148.698C69.9926 149.643 71.1824 150.119 72.5909 150.119C74.0508 150.119 75.2599 149.637 76.186 148.679C77.0928 147.74 77.5559 146.55 77.5559 145.154V113.396C77.5559 111.943 77.0864 110.74 76.1667 109.82C75.2406 108.901 74.0379 108.431 72.5909 108.431Z" fill="white"/>
<path d="M99.892 145.232V118.651H104.632C105.97 118.651 107.089 118.246 107.957 117.442C108.844 116.625 109.314 115.544 109.314 114.329C109.314 113.017 108.844 111.891 107.957 111.075C107.089 110.271 105.97 109.866 104.632 109.866H99.892V100.913C99.892 99.511 99.4225 98.3277 98.5028 97.408C97.5832 96.4883 96.3998 96.0188 94.9978 96.0188C93.5957 96.0188 92.4123 96.4883 91.4927 97.408C90.573 98.3277 90.1035 99.511 90.1035 100.913V109.866H88.1419C86.8042 109.866 85.6851 110.271 84.8169 111.075C83.9294 111.891 83.4663 113.017 83.4663 114.329C83.4663 115.551 83.9358 116.625 84.8169 117.442C85.6851 118.246 86.8042 118.651 88.1419 118.651H90.1035V145.232C90.1035 147.933 92.2966 150.126 94.9978 150.126C97.6989 150.119 99.892 147.933 99.892 145.232Z" fill="white"/>
<path d="M135.187 117.223C136.93 117.236 138.519 116.117 139.001 114.438C139.233 113.641 139.335 112.65 139.207 111.422C138.802 107.473 135.02 107.891 135.02 107.891C132.46 107.891 130.113 108.521 127.856 109.55C126.544 110.148 125.347 110.882 124.267 111.743C123.746 109.621 122.087 108.431 119.553 108.431C118.054 108.431 116.851 108.875 115.977 109.75C115.102 110.624 114.665 111.827 114.665 113.325V145.231C114.665 146.788 115.115 148.01 115.996 148.859C116.864 149.695 118.061 150.119 119.559 150.119C121.115 150.119 122.337 149.669 123.193 148.788C124.029 147.92 124.453 146.717 124.453 145.231V124.394C124.453 122.149 125.309 120.419 127.064 119.101C128.917 117.712 131.457 117.062 134.57 117.216C134.711 117.216 134.936 117.223 135.187 117.223Z" fill="white"/>
<path d="M179.525 118.554C177.679 115.345 175.139 112.779 171.981 110.933C168.817 109.087 165.241 108.148 161.357 108.148C157.478 108.148 153.883 109.087 150.668 110.927C147.452 112.773 144.899 115.345 143.072 118.561C141.252 121.77 140.332 125.391 140.332 129.314C140.332 133.231 141.188 136.832 142.873 140.029C144.571 143.244 146.937 145.811 149.915 147.643C152.899 149.476 156.263 150.409 159.922 150.409C162.868 150.409 165.653 149.792 168.206 148.563C169.737 147.83 171.139 146.91 172.406 145.817C172.521 146.968 172.991 147.959 173.801 148.769C174.747 149.714 175.936 150.19 177.345 150.19C178.753 150.19 179.943 149.714 180.889 148.769C181.834 147.824 182.31 146.634 182.31 145.225V129.308C182.304 125.385 181.371 121.764 179.525 118.554ZM172.663 129.314C172.663 131.604 172.168 133.681 171.184 135.501C170.206 137.302 168.843 138.742 167.132 139.778C165.428 140.813 163.479 141.334 161.357 141.334C159.234 141.334 157.292 140.813 155.581 139.778C153.864 138.736 152.481 137.295 151.484 135.488C150.481 133.675 149.973 131.597 149.973 129.314C149.973 127.031 150.481 124.934 151.491 123.095C152.488 121.268 153.864 119.815 155.581 118.773C157.292 117.738 159.234 117.217 161.357 117.217C163.479 117.217 165.421 117.738 167.132 118.773C168.843 119.809 170.206 121.262 171.184 123.082C172.168 124.928 172.663 127.025 172.663 129.314Z" fill="white"/>
<path d="M53.3225 112.431C50.5248 109.454 46.8268 107.942 42.3313 107.942C39.5336 107.942 36.9418 108.489 34.6329 109.563C32.8772 110.38 30.3947 112.354 29.0312 113.698L28.8961 113.821C27.5327 112.476 24.6386 110.386 22.8699 109.563C20.5611 108.489 17.9692 107.942 15.1716 107.942C10.6696 107.942 6.9716 109.454 4.18039 112.431C1.40204 115.383 0 119.506 0 124.683V145.096C0 146.492 0.463059 147.682 1.36988 148.621C2.296 149.579 3.5051 150.061 4.96502 150.061C6.37349 150.061 7.56329 149.586 8.5087 148.64C9.45411 147.695 9.93003 146.505 9.93003 145.096V124.683C9.93003 122.149 10.5346 120.239 11.7372 119.004C12.9399 117.763 14.5285 117.159 16.6058 117.159C18.7153 117.159 20.3939 117.86 21.738 119.307C23.1079 120.779 23.7768 122.632 23.7768 124.973V145.103C23.7768 146.498 24.2398 147.688 25.1467 148.627C26.0663 149.579 27.2754 150.068 28.7418 150.068C28.7482 150.068 28.7547 150.068 28.7611 150.068C28.7675 150.068 28.7739 150.068 28.7804 150.068C30.2403 150.068 31.4494 149.585 32.3755 148.627C33.2888 147.688 33.7454 146.498 33.7454 145.103V124.973C33.7454 122.632 34.4078 120.779 35.7841 119.307C37.1283 117.86 38.8069 117.159 40.9164 117.159C42.9873 117.159 44.5823 117.763 45.7849 119.004C46.9812 120.239 47.5921 122.156 47.5921 124.683V145.096C47.5921 146.505 48.0681 147.695 49.0135 148.64C49.9589 149.586 51.1487 150.061 52.5571 150.061C54.0171 150.061 55.2262 149.579 56.1523 148.621C57.0591 147.682 57.5222 146.492 57.5222 145.096V124.683C57.4964 119.506 56.0944 115.383 53.3225 112.431Z" fill="white"/>
<path d="M56.0558 27.9009L78.8871 5.06953C85.6465 -1.68984 96.6441 -1.68984 103.404 5.06953L126.235 27.9009C129.502 31.168 131.296 35.5156 131.296 40.1591C131.296 44.7961 129.496 49.1501 126.235 52.4173L103.404 75.2486C96.6441 82.008 85.6465 82.008 78.8871 75.2486L56.0558 52.4173C52.7886 49.1501 50.9943 44.8025 50.9943 40.1591C50.9878 35.5156 52.7886 31.1616 56.0558 27.9009ZM118.691 35.432L95.8595 12.6007C94.6054 11.3465 92.9268 10.6584 91.1389 10.6584C89.3445 10.6584 87.6659 11.3465 86.4183 12.6007L63.5869 35.432C62.3328 36.6861 61.6446 38.3583 61.6446 40.1527C61.6446 41.947 62.3328 43.6256 63.5869 44.8733L86.4183 67.7046C87.6724 68.9588 89.351 69.6469 91.1389 69.6469C92.9332 69.6469 94.6118 68.9588 95.8595 67.7046L118.691 44.8733C119.945 43.6192 120.633 41.9406 120.633 40.1527C120.633 38.3583 119.945 36.6861 118.691 35.432Z" fill="white"/>
<path opacity="0.4" d="M95.0812 68.2706L87.1963 76.0526C85.3505 77.9756 82.3342 78.2328 80.2505 76.58C80.2312 76.5671 80.2119 76.5478 80.1926 76.5349C80.1926 76.5349 76.8225 73.4993 75.652 72.1552C75.0539 71.4606 71.9797 68.3928 69.1306 65.5695C66.5967 63.0548 67.2784 58.7908 70.4748 57.1958L70.7642 57.0479C72.7708 56.0446 75.2018 56.4369 76.7904 58.0255L85.9165 67.1516C85.9165 67.1516 87.743 69.3511 90.5342 69.5119C93.3254 69.6727 95.0812 68.2706 95.0812 68.2706Z" fill="url(#paint0_linear_771_5352)"/>
<path d="M88.0583 11.501L95.1972 4.2528C97.0301 2.33626 100.027 2.079 102.098 3.73186C102.117 3.74473 102.137 3.76402 102.156 3.77688C102.156 3.77688 105.372 6.94755 106.626 8.20166C107.307 8.88982 110.317 11.8868 113.147 14.7038C115.668 17.212 114.986 21.4567 111.816 23.0453L111.526 23.1932C109.533 24.1965 107.121 23.8042 105.507 22.2928L96.4384 13.1988C96.4384 13.1988 94.6569 10.935 91.885 10.7742C89.1131 10.607 88.0583 11.501 88.0583 11.501Z" fill="url(#paint1_linear_771_5352)" fill-opacity="0.71"/>
</svg>
