<svg width="32" height="32" viewBox="0 0 32 32" fill="none" xmlns="http://www.w3.org/2000/svg">
<g id="Brand Icon">
<path id="Vector" d="M2.01795 11.1177L11.1157 2.01885C13.8071 -0.672949 18.1902 -0.672949 20.8843 2.01885L29.9821 11.1151C31.2821 12.4153 32 14.1515 32 16C32 17.8485 31.2847 19.5821 29.9821 20.8849L20.8843 29.9812C18.1902 32.673 13.8098 32.673 11.1157 29.9812L2.01795 20.8849C0.715288 19.5847 0 17.8485 0 16C0 14.1515 0.715288 12.4179 2.01795 11.1177ZM26.9799 14.1202L17.8822 5.02134C17.3836 4.52266 16.7153 4.24852 16 4.24852C15.2847 4.24852 14.6164 4.52266 14.1178 5.02134L5.02007 14.1202C4.52146 14.6189 4.24735 15.2872 4.24735 16.0026C4.24735 16.718 4.52146 17.3864 5.02007 17.885L14.1178 26.9813C14.6164 27.48 15.2847 27.7541 16 27.7541C16.7153 27.7541 17.3836 27.48 17.8822 26.9813L26.9799 17.885C27.4785 17.3864 27.7527 16.718 27.7527 16.0026C27.7527 15.2872 27.4785 14.6189 26.9799 14.1202Z" fill="url(#paint0_linear_1427_19026)"/>
<g id="Mask Group">
<mask id="mask0_1427_19026" style="mask-type:alpha" maskUnits="userSpaceOnUse" x="0" y="0" width="32" height="32">
<g id="Group">
<g id="Group_2">
<path id="Vector_2" d="M2.01795 11.1177L11.1157 2.01885C13.8071 -0.672949 18.1902 -0.672949 20.8843 2.01885L29.9821 11.1151C31.2821 12.4153 32 14.1515 32 16C32 17.8485 31.2847 19.5821 29.9821 20.8849L20.8843 29.9812C18.1902 32.673 13.8098 32.673 11.1157 29.9812L2.01795 20.8849C0.715288 19.5847 0 17.8485 0 16C0 14.1515 0.715288 12.4179 2.01795 11.1177ZM26.9799 14.1202L17.8822 5.02134C17.3836 4.52266 16.7153 4.24852 16 4.24852C15.2847 4.24852 14.6164 4.52266 14.1178 5.02134L5.02007 14.1202C4.52146 14.6189 4.24735 15.2872 4.24735 16.0026C4.24735 16.718 4.52146 17.3864 5.02007 17.885L14.1178 26.9813C14.6164 27.48 15.2847 27.7541 16 27.7541C16.7153 27.7541 17.3836 27.48 17.8822 26.9813L26.9799 17.885C27.4785 17.3864 27.7527 16.718 27.7527 16.0026C27.7527 15.2872 27.4785 14.6189 26.9799 14.1202Z" fill="url(#paint1_linear_1427_19026)"/>
</g>
</g>
</mask>
<g mask="url(#mask0_1427_19026)">
<g id="Group_3">
<path id="Vector_3" d="M17.5692 27.2032L14.4261 30.3049C13.6925 31.0699 12.489 31.1743 11.6589 30.5138C11.6511 30.5086 11.6432 30.5007 11.6354 30.4955C11.6354 30.4955 10.291 29.2867 9.82629 28.7489C9.58612 28.4721 8.36178 27.2502 7.2288 26.1249C6.21852 25.1224 6.49002 23.4253 7.76396 22.7883L7.88144 22.7308C8.68287 22.3314 9.64877 22.488 10.2805 23.1198L13.917 26.7568C13.917 26.7568 14.6453 27.634 15.7574 27.6967C16.8695 27.7593 17.5692 27.2032 17.5692 27.2032Z" fill="url(#paint2_linear_1427_19026)"/>
<path id="Vector_4" d="M15.1702 4.40447L14.8438 4.50865L17.6161 1.69527C18.3444 0.932898 19.5427 0.828464 20.365 1.4864C20.3728 1.49162 20.3807 1.49945 20.3885 1.50468C20.3885 1.50468 21.6703 2.76833 22.1689 3.26962C22.4404 3.54376 23.6412 4.73953 24.7664 5.85959C25.7714 6.85694 25.4999 8.54878 24.2364 9.18322L24.1216 9.24065C23.3253 9.64012 22.3647 9.48346 21.7225 8.88297L18.0729 5.30609C18.0729 5.30609 17.3994 4.35574 16.2978 4.29308C15.8219 4.26382 15.7837 4.24584 15.5402 4.31196L15.1702 4.40447Z" fill="url(#paint3_linear_1427_19026)"/>
</g>
</g>
</g>
</g>
<defs>
<linearGradient id="paint0_linear_1427_19026" x1="16.389" y1="31.9946" x2="15.6088" y2="0.00749937" gradientUnits="userSpaceOnUse">
<stop offset="0.00534759" stop-color="#8D65F5"/>
<stop offset="0.307292" stop-color="#6665F5"/>
<stop offset="0.9997" stop-color="#01D0FA"/>
</linearGradient>
<linearGradient id="paint1_linear_1427_19026" x1="15.999" y1="33.8987" x2="15.999" y2="1.89674" gradientUnits="userSpaceOnUse">
<stop stop-color="#8D65F5"/>
<stop offset="0.00828621" stop-color="#8A65F5"/>
<stop offset="0.0832" stop-color="#7665F5"/>
<stop offset="0.158" stop-color="#6A65F5"/>
<stop offset="0.2322" stop-color="#6665F5"/>
<stop offset="0.3772" stop-color="#4686F7"/>
<stop offset="0.547" stop-color="#28A6F8"/>
<stop offset="0.7111" stop-color="#13BDF9"/>
<stop offset="0.8653" stop-color="#05CBFA"/>
<stop offset="0.9997" stop-color="#01D0FA"/>
<stop offset="1" stop-color="#01D0FA"/>
</linearGradient>
<linearGradient id="paint2_linear_1427_19026" x1="15.6215" y1="29.9126" x2="7.76415" y2="22.0449" gradientUnits="userSpaceOnUse">
<stop stop-color="#2C2864"/>
<stop offset="1" stop-color="#4C81F7" stop-opacity="0"/>
</linearGradient>
<linearGradient id="paint3_linear_1427_19026" x1="16.1591" y1="1.60425" x2="23.9567" y2="9.41217" gradientUnits="userSpaceOnUse">
<stop stop-color="#005567"/>
<stop offset="1" stop-color="#09C8FA" stop-opacity="0"/>
</linearGradient>
</defs>
</svg>
