<svg width="100" height="34" viewBox="0 0 100 34" fill="none" xmlns="http://www.w3.org/2000/svg">
<path d="M4.73155 12.6857L11.8392 5.57722C13.9419 3.47426 17.3662 3.47426 19.4709 5.57722L26.5785 12.6837C27.5942 13.6994 28.155 15.0559 28.155 16.5C28.155 17.9441 27.5962 19.2985 26.5785 20.3163L19.4709 27.4228C17.3662 29.5257 13.9439 29.5257 11.8392 27.4228L4.73155 20.3163C3.71385 19.3006 3.15503 17.9441 3.15503 16.5C3.15503 15.0559 3.71385 13.7015 4.73155 12.6857ZM24.2331 15.0314L17.1255 7.92292C16.736 7.53333 16.2138 7.31916 15.655 7.31916C15.0962 7.31916 14.5741 7.53333 14.1846 7.92292L7.07696 15.0314C6.68742 15.421 6.47327 15.9432 6.47327 16.502C6.47327 17.0609 6.68742 17.5831 7.07696 17.9727L14.1846 25.0791C14.5741 25.4687 15.0962 25.6829 15.655 25.6829C16.2138 25.6829 16.736 25.4687 17.1255 25.0791L24.2331 17.9727C24.6226 17.5831 24.8368 17.0609 24.8368 16.502C24.8368 15.9432 24.6226 15.421 24.2331 15.0314Z" fill="url(#paint0_linear_123_5569)"/>
<mask id="mask0_123_5569" style="mask-type:alpha" maskUnits="userSpaceOnUse" x="3" y="4" width="26" height="25">
<path d="M4.73155 12.6857L11.8392 5.57722C13.9419 3.47426 17.3662 3.47426 19.4709 5.57722L26.5785 12.6837C27.5942 13.6994 28.155 15.0559 28.155 16.5C28.155 17.9441 27.5962 19.2985 26.5785 20.3163L19.4709 27.4228C17.3662 29.5257 13.9439 29.5257 11.8392 27.4228L4.73155 20.3163C3.71385 19.3006 3.15503 17.9441 3.15503 16.5C3.15503 15.0559 3.71385 13.7015 4.73155 12.6857ZM24.2331 15.0314L17.1255 7.92292C16.736 7.53333 16.2138 7.31916 15.655 7.31916C15.0962 7.31916 14.5741 7.53333 14.1846 7.92292L7.07696 15.0314C6.68742 15.421 6.47327 15.9432 6.47327 16.502C6.47327 17.0609 6.68742 17.5831 7.07696 17.9727L14.1846 25.0791C14.5741 25.4687 15.0962 25.6829 15.655 25.6829C16.2138 25.6829 16.736 25.4687 17.1255 25.0791L24.2331 17.9727C24.6226 17.5831 24.8368 17.0609 24.8368 16.502C24.8368 15.9432 24.6226 15.421 24.2331 15.0314Z" fill="url(#paint1_linear_123_5569)"/>
</mask>
<g mask="url(#mask0_123_5569)">
<path d="M16.8808 25.2525L14.4253 27.6757C13.8522 28.2733 12.912 28.3549 12.2634 27.8388C12.2573 27.8348 12.2512 27.8286 12.2451 27.8246C12.2451 27.8246 11.1947 26.8802 10.8317 26.46C10.6441 26.2438 9.68754 25.2892 8.80241 24.4101C8.01313 23.6268 8.22523 22.301 9.2205 21.8033L9.31228 21.7584C9.9384 21.4463 10.693 21.5687 11.1866 22.0623L14.0276 24.9037C14.0276 24.9037 14.5966 25.589 15.4654 25.638C16.3342 25.6869 16.8808 25.2525 16.8808 25.2525Z" fill="url(#paint2_linear_123_5569)"/>
<path d="M15.0067 7.44075L14.7517 7.52214L16.9176 5.32419C17.4866 4.72858 18.4227 4.64699 19.0652 5.16101C19.0713 5.16509 19.0774 5.17121 19.0835 5.17528C19.0835 5.17528 20.0849 6.16252 20.4745 6.55414C20.6866 6.76832 21.6247 7.70252 22.5037 8.57756C23.2889 9.35674 23.0768 10.6785 22.0897 11.1741L22 11.219C21.378 11.5311 20.6274 11.4087 20.1257 10.9396L17.2745 8.14514C17.2745 8.14514 16.7483 7.40267 15.8877 7.35372C15.5159 7.33087 15.486 7.31682 15.2958 7.36847L15.0067 7.44075Z" fill="url(#paint3_linear_123_5569)"/>
</g>
<path d="M61.5758 6.23401C61.0374 6.23401 60.5698 6.42923 60.1816 6.81753C59.7955 7.20368 59.5981 7.6735 59.5981 8.21197C59.5981 8.75044 59.7933 9.21812 60.1816 9.60642C60.5677 9.99257 61.0374 10.1899 61.5758 10.1899C62.1141 10.1899 62.5817 9.99472 62.9678 9.60642C63.3539 9.22026 63.5512 8.75044 63.5512 8.21197C63.5512 7.6735 63.3561 7.20583 62.9678 6.81753C62.5839 6.43138 62.1141 6.23401 61.5758 6.23401Z" fill="#2C2C42"/>
<path d="M61.5758 11.3999C61.1189 11.3999 60.7307 11.55 60.4218 11.8482C60.1087 12.1507 59.95 12.5455 59.95 13.0239V23.4243C59.95 23.8855 60.1065 24.276 60.4154 24.5849C60.7243 24.8938 61.1146 25.0504 61.5758 25.0504C62.0541 25.0504 62.4509 24.8917 62.7534 24.5784C63.0515 24.2695 63.2017 23.8812 63.2017 23.4243V13.026C63.2017 12.5498 63.0494 12.1572 62.7469 11.8547C62.4466 11.5522 62.052 11.3999 61.5758 11.3999Z" fill="#2C2C42"/>
<path d="M70.5161 23.45V14.7444H72.069C72.5066 14.7444 72.8734 14.6114 73.1565 14.3497C73.4461 14.0815 73.6005 13.7297 73.6005 13.3307C73.6005 12.9016 73.4483 12.5326 73.1565 12.2644C72.8713 12.0027 72.5066 11.8697 72.069 11.8697H70.5161V8.93494C70.5161 8.47584 70.3638 8.08969 70.0613 7.7872C69.7589 7.48686 69.3728 7.3324 68.9138 7.3324C68.4548 7.3324 68.0687 7.48471 67.7662 7.7872C67.4659 8.08969 67.3115 8.47584 67.3115 8.93494V11.8676H66.6701C66.2326 11.8676 65.8658 12.0006 65.5805 12.2623C65.2909 12.5305 65.1365 12.8994 65.1365 13.3285C65.1365 13.7275 65.2888 14.0815 65.5805 14.3475C65.8636 14.6093 66.2304 14.7423 66.6701 14.7423H67.3115V23.4479C67.3115 24.3317 68.0279 25.0504 68.9138 25.0504C69.7997 25.0526 70.5161 24.3339 70.5161 23.45Z" fill="#2C2C42"/>
<path d="M82.0734 14.2789C82.6461 14.2832 83.1631 13.9163 83.3218 13.3671C83.3969 13.1054 83.4312 12.7815 83.3905 12.3803C83.2596 11.0867 82.0198 11.224 82.0198 11.224C81.1811 11.224 80.4132 11.4299 79.6732 11.7667C79.2442 11.9619 78.8517 12.2022 78.4978 12.4854C78.3262 11.7903 77.7856 11.402 76.9534 11.402C76.4622 11.402 76.0675 11.5479 75.7822 11.8332C75.4969 12.1186 75.3511 12.5133 75.3511 13.0046V23.4522C75.3511 23.9627 75.4991 24.3618 75.7865 24.6407C76.0718 24.9153 76.4643 25.0547 76.9512 25.0547C77.4617 25.0547 77.8607 24.9088 78.1395 24.6171C78.4141 24.3317 78.5514 23.9392 78.5514 23.4522V16.6258C78.5514 15.89 78.8302 15.3236 79.4072 14.8924C80.0121 14.4376 80.8465 14.2231 81.8654 14.2746C81.9168 14.2767 81.9919 14.2789 82.0734 14.2789Z" fill="#2C2C42"/>
<path d="M96.5904 14.7144C95.9855 13.6632 95.1554 12.8244 94.1194 12.2194C93.0834 11.6144 91.9122 11.3076 90.6403 11.3076C89.3704 11.3076 88.1928 11.6144 87.1397 12.2194C86.0865 12.8244 85.2499 13.6653 84.6536 14.7187C84.0573 15.7699 83.7549 16.9541 83.7549 18.2391C83.7549 19.522 84.0359 20.7019 84.5871 21.7488C85.1427 22.8022 85.9192 23.641 86.893 24.2417C87.8689 24.8423 88.9715 25.147 90.1705 25.147C91.1357 25.147 92.0474 24.9432 92.8818 24.5441C93.3837 24.3039 93.8427 24.0035 94.2567 23.6453C94.2953 24.0228 94.4476 24.3468 94.7136 24.6128C95.0225 24.9217 95.4128 25.0783 95.874 25.0783C96.3352 25.0783 96.7256 24.9217 97.0344 24.6128C97.3433 24.3039 97.4999 23.9134 97.4999 23.4522V18.2391C97.502 16.9519 97.1953 15.7656 96.5904 14.7144ZM94.3446 18.237C94.3446 18.9857 94.1816 19.6679 93.8599 20.2621C93.5403 20.8521 93.0941 21.324 92.5321 21.663C91.9723 22.002 91.3374 22.1736 90.6424 22.1736C89.9474 22.1736 89.3104 22.002 88.7527 21.663C88.1907 21.3219 87.7381 20.8499 87.4121 20.2578C87.0839 19.6636 86.9166 18.9835 86.9166 18.2348C86.9166 17.4861 87.0839 16.8018 87.4121 16.1989C87.7381 15.6004 88.1886 15.1241 88.7527 14.7852C89.3125 14.4462 89.9474 14.2746 90.6424 14.2746C91.3374 14.2746 91.9723 14.4462 92.5321 14.7852C93.092 15.1241 93.5381 15.5982 93.8577 16.1968C94.1816 16.8018 94.3446 17.4883 94.3446 18.237Z" fill="#2C2C42"/>
<path d="M55.2675 12.7085C54.3516 11.7345 53.1419 11.239 51.6683 11.239C50.7524 11.239 49.903 11.417 49.1479 11.771C48.5731 12.0392 47.7601 12.6849 47.314 13.1268L47.2711 13.1676C46.8249 12.7278 45.879 12.0435 45.2977 11.7732C44.5427 11.4213 43.6932 11.2411 42.7773 11.2411C41.3037 11.2411 40.0918 11.7345 39.1781 12.7107C38.2707 13.6782 37.8096 15.0276 37.8096 16.7245V23.4093C37.8096 23.8662 37.9597 24.2545 38.2579 24.5634C38.5603 24.8766 38.9571 25.0354 39.4355 25.0354C39.8966 25.0354 40.287 24.8788 40.5959 24.5699C40.9048 24.2609 41.0614 23.8705 41.0614 23.4114V16.7202C41.0614 15.89 41.2608 15.2657 41.6534 14.8602C42.048 14.4526 42.5671 14.2553 43.2471 14.2553C43.9378 14.2553 44.4869 14.4848 44.9288 14.9589C45.3771 15.4416 45.5958 16.0487 45.5958 16.8146V23.405C45.5958 23.8619 45.7481 24.2502 46.0441 24.5591C46.3466 24.8724 46.7413 25.0311 47.2196 25.0311C47.2217 25.0311 47.2239 25.0311 47.226 25.0311C47.2282 25.0311 47.2303 25.0311 47.2325 25.0311C47.7108 25.0311 48.1076 24.8724 48.4079 24.5591C48.7061 24.2502 48.8562 23.8619 48.8562 23.405V16.8146C48.8562 16.0487 49.075 15.4416 49.5233 14.9589C49.963 14.4848 50.5121 14.2553 51.205 14.2553C51.8828 14.2553 52.404 14.4526 52.7987 14.8602C53.1912 15.2657 53.3907 15.8921 53.3907 16.7202V23.405C53.3907 23.8662 53.5473 24.2567 53.8561 24.5634C54.165 24.8724 54.5554 25.029 55.0166 25.029C55.4949 25.029 55.8896 24.8702 56.1942 24.557C56.4923 24.2481 56.6425 23.8598 56.6425 23.4028V16.7202C56.636 15.0254 56.1749 13.676 55.2675 12.7085Z" fill="#2C2C42"/>
<defs>
<linearGradient id="paint0_linear_123_5569" x1="15.959" y1="28.9958" x2="15.3494" y2="4.00586" gradientUnits="userSpaceOnUse">
<stop offset="0.00534759" stop-color="#8D65F5"/>
<stop offset="0.307292" stop-color="#6665F5"/>
<stop offset="0.9997" stop-color="#01D0FA"/>
</linearGradient>
<linearGradient id="paint1_linear_123_5569" x1="15.6543" y1="30.4834" x2="15.6543" y2="5.48182" gradientUnits="userSpaceOnUse">
<stop stop-color="#8D65F5"/>
<stop offset="0.00828621" stop-color="#8A65F5"/>
<stop offset="0.0832" stop-color="#7665F5"/>
<stop offset="0.158" stop-color="#6A65F5"/>
<stop offset="0.2322" stop-color="#6665F5"/>
<stop offset="0.3772" stop-color="#4686F7"/>
<stop offset="0.547" stop-color="#28A6F8"/>
<stop offset="0.7111" stop-color="#13BDF9"/>
<stop offset="0.8653" stop-color="#05CBFA"/>
<stop offset="0.9997" stop-color="#01D0FA"/>
<stop offset="1" stop-color="#01D0FA"/>
</linearGradient>
<linearGradient id="paint2_linear_123_5569" x1="15.3592" y1="27.3692" x2="9.22065" y2="21.2226" gradientUnits="userSpaceOnUse">
<stop stop-color="#2C2864"/>
<stop offset="1" stop-color="#4C81F7" stop-opacity="0"/>
</linearGradient>
<linearGradient id="paint3_linear_123_5569" x1="15.7793" y1="5.25308" x2="21.8712" y2="11.353" gradientUnits="userSpaceOnUse">
<stop stop-color="#005567"/>
<stop offset="1" stop-color="#09C8FA" stop-opacity="0"/>
</linearGradient>
</defs>
</svg>
