<svg width="313" height="314" viewBox="0 0 313 314" fill="none" xmlns="http://www.w3.org/2000/svg">
<defs>
<linearGradient id="paint0_linear_771_5375" x1="140.356" y1="103.444" x2="139.647" y2="74.3827" gradientUnits="userSpaceOnUse">
<stop offset="0.00534759" stop-color="#8D65F5"/>
<stop offset="0.1614" stop-color="#7765F5"/>
<stop offset="0.3149" stop-color="#6665F5"/>
<stop offset="0.406" stop-color="#5577F6"/>
<stop offset="0.6764" stop-color="#28A7F8"/>
<stop offset="0.8829" stop-color="#0CC5F9"/>
<stop offset="0.9997" stop-color="#01D0FA"/>
</linearGradient>
<linearGradient id="paint1_linear_771_5375" x1="140.001" y1="105.175" x2="140.001" y2="76.0991" gradientUnits="userSpaceOnUse">
<stop stop-color="#8D65F5"/>
<stop offset="0.00828621" stop-color="#8A65F5"/>
<stop offset="0.0832" stop-color="#7665F5"/>
<stop offset="0.158" stop-color="#6A65F5"/>
<stop offset="0.2322" stop-color="#6665F5"/>
<stop offset="0.3772" stop-color="#4686F7"/>
<stop offset="0.547" stop-color="#28A6F8"/>
<stop offset="0.7111" stop-color="#13BDF9"/>
<stop offset="0.8653" stop-color="#05CBFA"/>
<stop offset="0.9997" stop-color="#01D0FA"/>
<stop offset="1" stop-color="#01D0FA"/>
</linearGradient>
<linearGradient id="paint2_linear_771_5375" x1="139.658" y1="101.552" x2="132.52" y2="94.4034" gradientUnits="userSpaceOnUse">
<stop stop-color="#2C2864"/>
<stop offset="1" stop-color="#4C81F7" stop-opacity="0"/>
</linearGradient>
<linearGradient id="paint3_linear_771_5375" x1="140.146" y1="75.8326" x2="147.23" y2="82.9267" gradientUnits="userSpaceOnUse">
<stop stop-color="#005567"/>
<stop offset="1" stop-color="#09C8FA" stop-opacity="0"/>
</linearGradient>
<clipPath id="clip0_771_5375">
<rect width="66" height="55.3151" fill="white" transform="translate(107 74)"/>
</clipPath>
</defs>
<g id="Ilustra&#195;&#167;&#195;&#163;o">
<path id="Path 1" d="M30.0999 264.464L27.3433 253.592C22.4557 251.521 17.4551 249.727 12.3654 248.219L12.0175 253.271L10.6063 247.705C4.29422 245.9 0 245.106 0 245.106C0 245.106 5.79903 267.163 17.9661 284.026L32.1418 286.516L21.1291 288.104C22.6596 289.946 24.3043 291.689 26.0536 293.324C43.7512 309.751 63.4633 317.288 70.0813 310.158C76.6994 303.028 67.7176 283.931 50.02 267.506C44.5337 262.413 37.6416 258.327 30.7425 255.109L30.0999 264.464Z" fill="#F0F3FA"/>
<path id="Path 2" d="M56.3157 252.655L59.5758 241.924C56.4627 237.624 53.1097 233.503 49.5325 229.581L46.6229 233.727L48.292 228.232C43.8205 223.426 40.5549 220.527 40.5549 220.527C40.5549 220.527 34.1193 242.407 35.817 263.131L46.6649 272.59L36.4149 268.257C36.7736 270.625 37.2808 272.968 37.9336 275.272C44.5924 298.482 57.5709 315.123 66.9216 312.441C76.2724 309.758 78.455 288.768 71.7962 265.557C69.7321 258.362 65.9442 251.301 61.7012 244.981L56.3157 252.655Z" fill="#F0F3FA"/>
<path id="Path 22" d="M218.41 74.3718H216.69V27.2651C216.69 23.6846 215.985 20.1392 214.615 16.8312C213.245 13.5233 211.236 10.5176 208.704 7.98577C206.173 5.45397 203.167 3.44563 199.859 2.07543C196.551 0.705231 193.006 0 189.425 0H89.6199C82.3887 0 75.4537 2.87257 70.3405 7.98577C65.2273 13.099 62.3547 20.034 62.3547 27.2651V285.7C62.3547 289.281 63.06 292.826 64.4302 296.134C65.8004 299.442 67.8087 302.448 70.3405 304.98C72.8723 307.512 75.878 309.52 79.186 310.89C82.4939 312.26 86.0394 312.966 89.6199 312.966H189.425C196.656 312.965 203.591 310.093 208.704 304.98C213.817 299.866 216.69 292.931 216.69 285.7V107.903H218.409L218.41 74.3718Z" fill="#E1E7F3"/>
<path id="Path 23" d="M190.525 7.09082H177.498C178.097 8.55974 178.326 10.1535 178.164 11.7316C178.002 13.3097 177.455 14.8238 176.57 16.1404C175.685 17.4571 174.49 18.5358 173.09 19.2817C171.689 20.0276 170.127 20.4177 168.541 20.4177H111.364C109.777 20.4176 108.215 20.0274 106.815 19.2814C105.415 18.5355 104.22 17.4567 103.335 16.1401C102.451 14.8235 101.903 13.3094 101.741 11.7314C101.579 10.1533 101.808 8.55967 102.407 7.09082H90.2393C84.8391 7.09082 79.6601 9.23603 75.8416 13.0545C72.0231 16.873 69.8779 22.052 69.8779 27.4522V285.512C69.8779 290.912 72.0231 296.091 75.8416 299.91C79.6601 303.728 84.8391 305.873 90.2393 305.873H190.525C195.925 305.873 201.104 303.728 204.923 299.91C208.741 296.091 210.887 290.912 210.887 285.512V285.512V27.4517C210.886 22.0516 208.741 16.8728 204.923 13.0544C201.104 9.23597 195.925 7.09082 190.525 7.09082V7.09082Z" fill="white"/>
<path id="Rectangle 1" d="M183.684 187.881H91.8442V188.742H183.684V187.881Z" fill="#CCCCCC"/>
<path id="Ellipse 2" d="M94.7446 182.511C96.3464 182.511 97.645 181.212 97.645 179.61C97.645 178.008 96.3464 176.71 94.7446 176.71C93.1428 176.71 91.8442 178.008 91.8442 179.61C91.8442 181.212 93.1428 182.511 94.7446 182.511Z" fill="#28A7F8"/>
<path id="Rectangle 2" d="M183.684 216.883H91.8442V217.743H183.684V216.883Z" fill="#CCCCCC"/>
<path id="Ellipse 3" d="M94.7446 211.513C96.3464 211.513 97.645 210.215 97.645 208.613C97.645 207.011 96.3464 205.712 94.7446 205.712C93.1428 205.712 91.8442 207.011 91.8442 208.613C91.8442 210.215 93.1428 211.513 94.7446 211.513Z" fill="#28A7F8"/>
<path id="Vector" d="M182.003 249.909H152.979C152.478 249.909 151.997 249.709 151.643 249.355C151.288 249 151.089 248.52 151.088 248.018V237.846C151.089 237.344 151.288 236.864 151.643 236.509C151.997 236.155 152.478 235.955 152.979 235.955H182.003C182.505 235.955 182.985 236.155 183.34 236.509C183.694 236.864 183.894 237.344 183.894 237.846V248.018C183.894 248.52 183.694 249 183.34 249.355C182.985 249.709 182.505 249.909 182.003 249.909V249.909Z" fill="#28A7F8"/>
<path id="Ellipse 7" d="M104.205 182.511C105.807 182.511 107.106 181.212 107.106 179.61C107.106 178.008 105.807 176.71 104.205 176.71C102.603 176.71 101.305 178.008 101.305 179.61C101.305 181.212 102.603 182.511 104.205 182.511Z" fill="#28A7F8"/>
<path id="Ellipse 8" d="M113.666 182.511C115.268 182.511 116.566 181.212 116.566 179.61C116.566 178.008 115.268 176.71 113.666 176.71C112.064 176.71 110.766 178.008 110.766 179.61C110.766 181.212 112.064 182.511 113.666 182.511Z" fill="#28A7F8"/>
<path id="Ellipse 9" d="M104.205 211.513C105.807 211.513 107.106 210.215 107.106 208.613C107.106 207.011 105.807 205.712 104.205 205.712C102.603 205.712 101.305 207.011 101.305 208.613C101.305 210.215 102.603 211.513 104.205 211.513Z" fill="#28A7F8"/>
<path id="Ellipse 10" d="M113.666 211.513C115.268 211.513 116.566 210.215 116.566 208.613C116.566 207.011 115.268 205.712 113.666 205.712C112.064 205.712 110.766 207.011 110.766 208.613C110.766 210.215 112.064 211.513 113.666 211.513Z" fill="#28A7F8"/>
<path id="Path 88" d="M311.831 313.937H10.1188C9.47289 313.937 8.94971 313.707 8.94971 313.425C8.94971 313.142 9.47289 312.913 10.1188 312.913H311.831C312.476 312.913 313 313.142 313 313.425C313 313.708 312.476 313.937 311.831 313.937Z" fill="#E7EAF1"/>
<path id="Vector_2" d="M237.288 205.682C237.495 205.776 237.693 205.886 237.881 206.012L256.729 197.968L257.402 193.003L264.933 192.957L264.488 204.344L239.611 210.923C239.559 211.096 239.496 211.266 239.423 211.431C239.063 212.198 238.485 212.842 237.76 213.282C237.036 213.722 236.197 213.938 235.351 213.903C234.504 213.868 233.686 213.583 233.001 213.085C232.315 212.587 231.792 211.897 231.497 211.103C231.202 210.308 231.148 209.444 231.342 208.619C231.537 207.794 231.971 207.045 232.59 206.466C233.208 205.887 233.984 205.503 234.82 205.364C235.656 205.224 236.515 205.335 237.288 205.682V205.682Z" fill="#FFB8B8"/>
<path id="Vector_3" d="M267.672 308.87H262.52L260.069 288.999L267.673 288.999L267.672 308.87Z" fill="#FFB8B8"/>
<path id="Vector_4" d="M258.84 307.398H268.775V313.654H252.584C252.584 311.995 253.243 310.404 254.416 309.231C255.589 308.058 257.181 307.398 258.84 307.398Z" fill="#2C2C42"/>
<path id="Vector_5" d="M287.708 307.415L282.581 307.92L278.193 288.385L285.76 287.639L287.708 307.415Z" fill="#FFB8B8"/>
<path id="Vector_6" d="M278.774 306.816L288.662 305.842L289.275 312.067L273.162 313.655C273.082 312.837 273.163 312.012 273.401 311.225C273.64 310.439 274.031 309.708 274.552 309.073C275.073 308.438 275.714 307.912 276.439 307.524C277.163 307.137 277.957 306.896 278.774 306.816Z" fill="#2C2C42"/>
<path id="Vector_7" d="M269.106 171.927C274.806 171.927 279.427 167.306 279.427 161.606C279.427 155.906 274.806 151.285 269.106 151.285C263.406 151.285 258.785 155.906 258.785 161.606C258.785 167.306 263.406 171.927 269.106 171.927Z" fill="#FFB8B8"/>
<path id="Vector_8" d="M261.368 304.852C260.926 304.853 260.497 304.698 260.157 304.414C259.818 304.13 259.59 303.735 259.513 303.298C256.847 288.496 248.13 240.095 247.922 238.755C247.917 238.724 247.915 238.693 247.915 238.661V235.053C247.915 234.921 247.956 234.793 248.033 234.686L249.184 233.073C249.239 232.996 249.311 232.932 249.394 232.886C249.477 232.841 249.57 232.815 249.665 232.811C256.229 232.503 277.729 231.601 278.767 232.899C279.811 234.203 279.442 238.154 279.358 238.933L279.362 239.014L289.021 300.785C289.096 301.277 288.975 301.78 288.683 302.184C288.39 302.587 287.951 302.86 287.459 302.942L281.427 303.936C280.977 304.008 280.517 303.917 280.129 303.678C279.742 303.44 279.453 303.07 279.315 302.637C277.449 296.674 271.192 276.617 269.024 268.856C269.01 268.807 268.979 268.765 268.937 268.737C268.894 268.709 268.843 268.697 268.792 268.704C268.742 268.712 268.696 268.737 268.663 268.776C268.629 268.814 268.611 268.864 268.612 268.915C268.72 276.313 268.982 295.188 269.072 301.707L269.082 302.41C269.086 302.885 268.912 303.345 268.593 303.697C268.275 304.05 267.836 304.271 267.362 304.316L261.545 304.844C261.486 304.85 261.427 304.852 261.368 304.852Z" fill="#2C2C42"/>
<path id="Path 99" d="M262.555 175.985C260.754 177.055 259.676 179.023 259.058 181.025C257.913 184.732 257.224 188.565 257.006 192.438L256.352 204.036L248.26 234.784C255.273 240.717 259.319 239.369 268.759 234.515C278.199 229.662 279.278 236.134 279.278 236.134L281.166 209.971L283.863 181.383C283.258 180.654 282.572 179.995 281.82 179.419C279.327 177.48 276.427 176.133 273.337 175.478C270.248 174.823 267.05 174.878 263.985 175.639L262.555 175.985Z" fill="#28A7F8"/>
<path id="Vector_9" d="M259.927 211.892C260.145 211.974 260.356 212.072 260.558 212.187L279.194 202.86L279.503 197.806L287.191 197.276L287.603 208.796L262.698 217.032C262.495 217.904 262.031 218.694 261.368 219.296C260.705 219.898 259.874 220.284 258.986 220.402C258.098 220.521 257.196 220.366 256.398 219.959C255.6 219.552 254.945 218.911 254.52 218.123C254.095 217.335 253.92 216.436 254.019 215.545C254.117 214.655 254.485 213.816 255.072 213.14C255.658 212.463 256.437 211.981 257.305 211.759C258.172 211.536 259.087 211.582 259.927 211.892Z" fill="#FFB8B8"/>
<path id="Path 101" d="M283.728 181.514C288.313 183.132 289.121 200.665 289.121 200.665C283.727 197.698 277.254 202.553 277.254 202.553C277.254 202.553 275.905 197.968 274.287 192.034C273.798 190.365 273.74 188.6 274.117 186.902C274.494 185.204 275.295 183.629 276.444 182.324C276.444 182.324 279.143 179.895 283.728 181.514Z" fill="#28A7F8"/>
<path id="Path 102" d="M278.36 164.335C277.074 163.306 275.32 165.176 275.32 165.176L274.291 155.918C274.291 155.918 267.861 156.688 263.746 155.661C259.631 154.633 258.988 159.39 258.988 159.39C258.776 157.469 258.733 155.532 258.859 153.603C259.116 151.288 262.46 148.974 268.375 147.43C274.291 145.887 277.377 152.574 277.377 152.574C281.492 154.632 279.646 165.364 278.36 164.335Z" fill="#2F2E41"/>
<g id="mitra_vertical_padrao 1" clip-path="url(#clip0_771_5375)">
<g id="padr&#195;&#163;o_00000010995213954269188330000003042733711475498931_">
<g id="Group">
<path id="Vector_10" d="M133.28 108.034C132.687 108.034 132.167 108.251 131.739 108.679C131.311 109.108 131.094 109.624 131.094 110.221C131.094 110.817 131.311 111.333 131.739 111.762C132.167 112.19 132.684 112.407 133.28 112.407C133.876 112.407 134.393 112.19 134.822 111.762C135.25 111.333 135.467 110.817 135.467 110.221C135.467 109.624 135.25 109.108 134.822 108.679C134.393 108.251 133.874 108.034 133.28 108.034Z" fill="#2C2C42"/>
<path id="Vector_11" d="M133.28 113.746C132.775 113.746 132.344 113.913 132.004 114.242C131.66 114.575 131.483 115.012 131.483 115.543V127.041C131.483 127.551 131.655 127.982 131.997 128.324C132.34 128.666 132.77 128.838 133.28 128.838C133.809 128.838 134.247 128.664 134.582 128.317C134.91 127.977 135.078 127.546 135.078 127.041V115.543C135.078 115.017 134.908 114.582 134.575 114.249C134.24 113.913 133.804 113.746 133.28 113.746Z" fill="#2C2C42"/>
<path id="Vector_12" d="M143.164 127.066V117.443H144.88C145.365 117.443 145.77 117.296 146.084 117.005C146.405 116.71 146.575 116.318 146.575 115.878C146.575 115.403 146.405 114.996 146.084 114.7C145.77 114.409 145.365 114.262 144.88 114.262H143.164V111.021C143.164 110.514 142.994 110.085 142.661 109.752C142.328 109.419 141.9 109.25 141.392 109.25C140.885 109.25 140.456 109.419 140.123 109.752C139.79 110.085 139.621 110.514 139.621 111.021V114.262H138.91C138.426 114.262 138.021 114.409 137.707 114.7C137.385 114.996 137.218 115.403 137.218 115.878C137.218 116.321 137.388 116.71 137.707 117.005C138.021 117.296 138.426 117.443 138.91 117.443H139.621V127.066C139.621 128.044 140.415 128.838 141.392 128.838C142.37 128.838 143.164 128.044 143.164 127.066Z" fill="#2C2C42"/>
<path id="Vector_13" d="M155.942 116.928C156.573 116.933 157.148 116.528 157.323 115.92C157.407 115.632 157.444 115.273 157.398 114.828C157.251 113.399 155.882 113.55 155.882 113.55C154.955 113.55 154.105 113.778 153.288 114.151C152.813 114.367 152.38 114.633 151.989 114.945C151.8 114.176 151.199 113.746 150.282 113.746C149.74 113.746 149.304 113.906 148.987 114.223C148.671 114.54 148.512 114.975 148.512 115.518V127.069C148.512 127.632 148.675 128.074 148.994 128.382C149.309 128.684 149.742 128.838 150.284 128.838C150.848 128.838 151.29 128.675 151.6 128.356C151.903 128.042 152.056 127.606 152.056 127.069V119.525C152.056 118.712 152.366 118.086 153.002 117.608C153.672 117.105 154.592 116.87 155.719 116.926C155.77 116.926 155.851 116.928 155.942 116.928Z" fill="#2C2C42"/>
<path id="Vector_14" d="M171.994 117.411C171.326 116.249 170.406 115.32 169.263 114.651C168.117 113.983 166.823 113.643 165.416 113.643C164.012 113.643 162.711 113.983 161.547 114.649C160.383 115.317 159.458 116.249 158.797 117.413C158.138 118.575 157.805 119.886 157.805 121.306C157.805 122.724 158.115 124.028 158.725 125.185C159.339 126.349 160.196 127.278 161.274 127.942C162.355 128.605 163.572 128.943 164.897 128.943C165.964 128.943 166.972 128.72 167.896 128.275C168.45 128.009 168.958 127.676 169.417 127.281C169.459 127.697 169.629 128.056 169.922 128.349C170.264 128.692 170.695 128.864 171.205 128.864C171.715 128.864 172.145 128.692 172.488 128.349C172.83 128.007 173.002 127.576 173.002 127.066V121.304C173 119.883 172.662 118.572 171.994 117.411ZM169.51 121.306C169.51 122.135 169.33 122.887 168.974 123.546C168.62 124.198 168.127 124.719 167.507 125.094C166.89 125.469 166.185 125.658 165.416 125.658C164.648 125.658 163.945 125.469 163.326 125.094C162.704 124.717 162.203 124.195 161.842 123.541C161.479 122.885 161.295 122.133 161.295 121.306C161.295 120.479 161.479 119.72 161.845 119.054C162.206 118.393 162.704 117.867 163.326 117.49C163.945 117.115 164.648 116.926 165.416 116.926C166.185 116.926 166.888 117.115 167.507 117.49C168.127 117.865 168.62 118.391 168.974 119.05C169.33 119.718 169.51 120.475 169.51 121.306Z" fill="#2C2C42"/>
<path id="Vector_15" d="M126.305 115.191C125.292 114.113 123.953 113.566 122.325 113.566C121.312 113.566 120.374 113.764 119.538 114.153C118.903 114.449 118.004 115.163 117.51 115.65L117.461 115.694C116.968 115.208 115.92 114.451 115.28 114.153C114.444 113.764 113.505 113.566 112.493 113.566C110.863 113.566 109.524 114.113 108.513 115.191C107.51 116.26 107.002 117.753 107.002 119.627V127.017C107.002 127.522 107.17 127.953 107.498 128.293C107.834 128.64 108.271 128.815 108.8 128.815C109.31 128.815 109.74 128.642 110.083 128.3C110.425 127.958 110.597 127.527 110.597 127.017V119.627C110.597 118.71 110.816 118.018 111.252 117.571C111.687 117.122 112.262 116.903 113.014 116.903C113.778 116.903 114.386 117.157 114.872 117.68C115.368 118.214 115.61 118.884 115.61 119.732V127.019C115.61 127.525 115.778 127.955 116.106 128.295C116.439 128.64 116.877 128.817 117.408 128.817C117.41 128.817 117.412 128.817 117.415 128.817C117.417 128.817 117.419 128.817 117.422 128.817C117.95 128.817 118.388 128.642 118.723 128.295C119.054 127.955 119.219 127.525 119.219 127.019V119.732C119.219 118.884 119.459 118.214 119.957 117.68C120.444 117.157 121.052 116.903 121.815 116.903C122.565 116.903 123.143 117.122 123.578 117.571C124.011 118.018 124.232 118.712 124.232 119.627V127.017C124.232 127.527 124.405 127.958 124.747 128.3C125.089 128.642 125.52 128.815 126.03 128.815C126.558 128.815 126.996 128.64 127.331 128.293C127.66 127.953 127.827 127.522 127.827 127.017V119.627C127.816 117.755 127.308 116.262 126.305 115.191Z" fill="#2C2C42"/>
</g>
<g id="Group_2">
<g id="Group_3">
<g id="Group_4">
<g id="Group_5">
<path id="Vector_16" d="M127.299 84.4763L135.565 76.2106C138.012 73.7635 141.994 73.7635 144.441 76.2106L152.707 84.4763C153.889 85.6591 154.539 87.2331 154.539 88.9142C154.539 90.5929 153.887 92.1692 152.707 93.3521L144.441 101.618C141.994 104.065 138.012 104.065 135.565 101.618L127.299 93.3521C126.117 92.1692 125.467 90.5953 125.467 88.9142C125.467 87.2331 126.117 85.6591 127.299 84.4763ZM149.975 87.2028L141.71 78.9371C141.256 78.4831 140.648 78.2339 140.001 78.2339C139.351 78.2339 138.743 78.4831 138.292 78.9371L130.026 87.2028C129.572 87.6569 129.323 88.2622 129.323 88.9118C129.323 89.5615 129.572 90.1692 130.026 90.6209L138.292 98.8866C138.746 99.3406 139.353 99.5898 140.001 99.5898C140.65 99.5898 141.258 99.3406 141.71 98.8866L149.975 90.6209C150.429 90.1668 150.679 89.5591 150.679 88.9118C150.679 88.2646 150.429 87.6569 149.975 87.2028Z" fill="url(#paint0_linear_771_5375)"/>
</g>
</g>
<g id="Group_6">
<g id="Group_7">
<path id="Vector_17" d="M127.299 84.4763L135.565 76.2106C138.012 73.7635 141.994 73.7635 144.441 76.2106L152.707 84.4763C153.889 85.6591 154.539 87.2331 154.539 88.9142C154.539 90.5929 153.887 92.1692 152.707 93.3521L144.441 101.618C141.994 104.065 138.012 104.065 135.565 101.618L127.299 93.3521C126.117 92.1692 125.467 90.5953 125.467 88.9142C125.467 87.2331 126.117 85.6591 127.299 84.4763ZM149.975 87.2028L141.71 78.9371C141.256 78.4831 140.648 78.2339 140.001 78.2339C139.351 78.2339 138.743 78.4831 138.292 78.9371L130.026 87.2028C129.572 87.6569 129.323 88.2622 129.323 88.9118C129.323 89.5615 129.572 90.1692 130.026 90.6209L138.292 98.8866C138.746 99.3406 139.353 99.5898 140.001 99.5898C140.65 99.5898 141.258 99.3406 141.71 98.8866L149.975 90.6209C150.429 90.1668 150.679 89.5591 150.679 88.9118C150.679 88.2646 150.429 87.6569 149.975 87.2028Z" fill="url(#paint1_linear_771_5375)"/>
</g>
</g>
</g>
<g id="Group_8">
<path id="Vector_18" d="M141.428 99.0905L138.573 101.908C137.905 102.604 136.813 102.697 136.058 102.099C136.051 102.094 136.044 102.087 136.037 102.082C136.037 102.082 134.817 100.983 134.394 100.497C134.177 100.245 133.064 99.1347 132.033 98.1125C131.115 97.2022 131.362 95.6584 132.519 95.081L132.624 95.0275C133.351 94.6642 134.231 94.8063 134.806 95.3814L138.11 98.6853C138.11 98.6853 138.771 99.4816 139.781 99.5398C140.79 99.598 141.428 99.0905 141.428 99.0905Z" fill="url(#paint2_linear_771_5375)"/>
<path id="Vector_19" d="M138.885 78.5381L141.469 75.914C142.133 75.2201 143.218 75.127 143.968 75.7254C143.975 75.73 143.982 75.737 143.989 75.7417C143.989 75.7417 145.153 76.8896 145.607 77.3436C145.854 77.5927 146.943 78.6778 147.968 79.6976C148.881 80.6056 148.634 82.1424 147.486 82.7175L147.381 82.771C146.659 83.1343 145.786 82.9922 145.202 82.4451L141.884 79.1923C141.884 79.1923 141.271 78.3308 140.27 78.2726C139.267 78.2144 138.885 78.5381 138.885 78.5381Z" fill="url(#paint3_linear_771_5375)"/>
</g>
</g>
</g>
</g>
</g>
</svg>
