<svg width="33" height="33" viewBox="0 0 33 33" fill="none" xmlns="http://www.w3.org/2000/svg">
<path fill-rule="evenodd" clip-rule="evenodd" d="M16.5 33C25.6127 33 33 25.6127 33 16.5C33 7.3873 25.6127 0 16.5 0C7.3873 0 0 7.3873 0 16.5C0 25.6127 7.3873 33 16.5 33ZM25.75 24H7V20.25H25.75V24ZM10.75 21.1875H8.875V23.0625H10.75V21.1875ZM7 12.75V9H25.75V12.75H7ZM8.875 11.8125H10.75V9.9375H8.875V11.8125ZM25.75 18.375H7V14.625H25.75V18.375ZM10.75 15.5625H8.875V17.4375H10.75V15.5625Z" fill="#7B8098"/>
</svg>
