<svg width="375" height="667" viewBox="0 0 375 667" fill="none" xmlns="http://www.w3.org/2000/svg">
<rect width="375" height="667" fill="url(#paint0_linear_16_40)"/>
<path d="M168.591 350.662C166.951 350.662 165.517 351.26 164.333 352.443C163.15 353.627 162.552 355.054 162.552 356.701C162.552 358.347 163.15 359.775 164.333 360.958C165.517 362.142 166.944 362.74 168.591 362.74C170.237 362.74 171.665 362.142 172.848 360.958C174.032 359.775 174.63 358.347 174.63 356.701C174.63 355.061 174.032 353.627 172.848 352.443C171.665 351.26 170.231 350.662 168.591 350.662Z" fill="white"/>
<path d="M168.591 366.431C167.195 366.431 166.005 366.894 165.066 367.801C164.115 368.721 163.626 369.93 163.626 371.396V403.154C163.626 404.563 164.102 405.753 165.047 406.698C165.993 407.643 167.182 408.119 168.591 408.119C170.051 408.119 171.26 407.637 172.186 406.679C173.093 405.74 173.556 404.55 173.556 403.154V371.396C173.556 369.943 173.086 368.74 172.167 367.82C171.241 366.901 170.038 366.431 168.591 366.431Z" fill="white"/>
<path d="M195.892 403.232V376.651H200.632C201.97 376.651 203.089 376.246 203.957 375.442C204.844 374.625 205.314 373.545 205.314 372.329C205.314 371.017 204.844 369.892 203.957 369.075C203.089 368.271 201.97 367.866 200.632 367.866H195.892V358.913C195.892 357.511 195.423 356.328 194.503 355.408C193.583 354.488 192.4 354.019 190.998 354.019C189.596 354.019 188.412 354.488 187.493 355.408C186.573 356.328 186.103 357.511 186.103 358.913V367.866H184.142C182.804 367.866 181.685 368.271 180.817 369.075C179.929 369.892 179.466 371.017 179.466 372.329C179.466 373.551 179.936 374.625 180.817 375.442C181.685 376.246 182.804 376.651 184.142 376.651H186.103V403.232C186.103 405.933 188.297 408.126 190.998 408.126C193.699 408.12 195.892 405.933 195.892 403.232Z" fill="white"/>
<path d="M231.187 375.223C232.93 375.236 234.519 374.117 235.001 372.438C235.233 371.641 235.335 370.65 235.207 369.422C234.802 365.473 231.02 365.891 231.02 365.891C228.46 365.891 226.113 366.521 223.856 367.55C222.544 368.148 221.347 368.882 220.267 369.743C219.746 367.621 218.087 366.431 215.553 366.431C214.054 366.431 212.851 366.875 211.977 367.75C211.102 368.624 210.665 369.827 210.665 371.326V403.232C210.665 404.788 211.115 406.01 211.996 406.859C212.864 407.695 214.061 408.119 215.559 408.119C217.115 408.119 218.337 407.669 219.193 406.788C220.029 405.92 220.453 404.717 220.453 403.232V382.394C220.453 380.149 221.309 378.419 223.064 377.101C224.917 375.712 227.457 375.062 230.57 375.217C230.711 375.217 230.936 375.223 231.187 375.223Z" fill="white"/>
<path d="M275.525 376.554C273.679 373.345 271.139 370.779 267.981 368.933C264.817 367.087 261.241 366.148 257.357 366.148C253.478 366.148 249.883 367.087 246.668 368.927C243.452 370.773 240.899 373.345 239.072 376.561C237.252 379.77 236.332 383.391 236.332 387.314C236.332 391.231 237.188 394.832 238.873 398.029C240.571 401.244 242.937 403.811 245.915 405.643C248.899 407.476 252.263 408.409 255.922 408.409C258.868 408.409 261.653 407.792 264.206 406.563C265.737 405.83 267.139 404.91 268.406 403.817C268.521 404.968 268.991 405.959 269.801 406.769C270.747 407.714 271.936 408.19 273.345 408.19C274.753 408.19 275.943 407.714 276.889 406.769C277.834 405.824 278.31 404.634 278.31 403.225V387.308C278.304 383.385 277.371 379.764 275.525 376.554ZM268.663 387.314C268.663 389.604 268.168 391.681 267.184 393.501C266.206 395.302 264.843 396.742 263.132 397.778C261.428 398.813 259.479 399.334 257.357 399.334C255.234 399.334 253.292 398.813 251.581 397.778C249.864 396.736 248.481 395.295 247.484 393.488C246.481 391.675 245.973 389.597 245.973 387.314C245.973 385.031 246.481 382.934 247.491 381.095C248.488 379.268 249.864 377.815 251.581 376.773C253.292 375.738 255.234 375.217 257.357 375.217C259.479 375.217 261.421 375.738 263.132 376.773C264.843 377.809 266.206 379.262 267.184 381.082C268.168 382.928 268.663 385.025 268.663 387.314Z" fill="white"/>
<path d="M149.322 370.432C146.525 367.454 142.827 365.943 138.331 365.943C135.534 365.943 132.942 366.489 130.633 367.563C128.877 368.38 126.395 370.354 125.031 371.699L124.896 371.821C123.533 370.477 120.639 368.386 118.87 367.563C116.561 366.489 113.969 365.943 111.172 365.943C106.67 365.943 102.972 367.454 100.18 370.432C97.402 373.384 96 377.506 96 382.683V403.097C96 404.492 96.4631 405.682 97.3699 406.621C98.296 407.579 99.5051 408.062 100.965 408.062C102.373 408.062 103.563 407.586 104.509 406.64C105.454 405.695 105.93 404.505 105.93 403.097V382.683C105.93 380.149 106.535 378.239 107.737 377.004C108.94 375.763 110.528 375.159 112.606 375.159C114.715 375.159 116.394 375.86 117.738 377.307C119.108 378.78 119.777 380.632 119.777 382.973V403.103C119.777 404.499 120.24 405.688 121.147 406.627C122.066 407.579 123.275 408.068 124.742 408.068C124.748 408.068 124.755 408.068 124.761 408.068C124.768 408.068 124.774 408.068 124.78 408.068C126.24 408.068 127.449 407.586 128.376 406.627C129.289 405.688 129.745 404.499 129.745 403.103V382.973C129.745 380.632 130.408 378.78 131.784 377.307C133.128 375.86 134.807 375.159 136.916 375.159C138.987 375.159 140.582 375.763 141.785 377.004C142.981 378.239 143.592 380.156 143.592 382.683V403.097C143.592 404.505 144.068 405.695 145.013 406.64C145.959 407.586 147.149 408.062 148.557 408.062C150.017 408.062 151.226 407.579 152.152 406.621C153.059 405.682 153.522 404.492 153.522 403.097V382.683C153.496 377.506 152.094 373.384 149.322 370.432Z" fill="white"/>
<path d="M152.056 285.901L174.887 263.07C181.647 256.31 192.644 256.31 199.404 263.07L222.235 285.901C225.502 289.168 227.296 293.516 227.296 298.159C227.296 302.796 225.496 307.15 222.235 310.417L199.404 333.249C192.644 340.008 181.647 340.008 174.887 333.249L152.056 310.417C148.789 307.15 146.994 302.803 146.994 298.159C146.988 293.516 148.789 289.162 152.056 285.901ZM214.691 293.432L191.86 270.601C190.605 269.347 188.927 268.658 187.139 268.658C185.345 268.658 183.666 269.347 182.418 270.601L159.587 293.432C158.333 294.686 157.645 296.358 157.645 298.153C157.645 299.947 158.333 301.626 159.587 302.873L182.418 325.705C183.672 326.959 185.351 327.647 187.139 327.647C188.933 327.647 190.612 326.959 191.86 325.705L214.691 302.873C215.945 301.619 216.633 299.941 216.633 298.153C216.633 296.358 215.945 294.686 214.691 293.432Z" fill="white"/>
<path opacity="0.4" d="M191.081 326.271L183.196 334.052C181.351 335.975 178.334 336.233 176.25 334.58C176.231 334.567 176.212 334.548 176.193 334.535C176.193 334.535 172.823 331.499 171.652 330.155C171.054 329.46 167.98 326.393 165.131 323.569C162.597 321.055 163.278 316.791 166.475 315.196L166.764 315.048C168.771 314.044 171.202 314.437 172.79 316.025L181.916 325.151C181.916 325.151 183.743 327.351 186.534 327.512C189.325 327.673 191.081 326.271 191.081 326.271Z" fill="url(#paint1_linear_16_40)"/>
<path d="M184.058 269.501L191.197 262.253C193.03 260.336 196.027 260.079 198.098 261.732C198.117 261.745 198.137 261.764 198.156 261.777C198.156 261.777 201.372 264.948 202.626 266.202C203.307 266.89 206.317 269.887 209.147 272.704C211.668 275.212 210.986 279.457 207.816 281.045L207.526 281.193C205.533 282.196 203.121 281.804 201.507 280.293L192.438 271.199C192.438 271.199 190.657 268.935 187.885 268.774C185.113 268.607 184.058 269.501 184.058 269.501Z" fill="url(#paint2_linear_16_40)" fill-opacity="0.71"/>
<defs>
<linearGradient id="paint0_linear_16_40" x1="187" y1="-216.5" x2="187" y2="667" gradientUnits="userSpaceOnUse">
<stop offset="0.0101852" stop-color="#01D0FA"/>
<stop offset="0.984375" stop-color="#8D65F5"/>
</linearGradient>
<linearGradient id="paint1_linear_16_40" x1="187.183" y1="334.06" x2="167.467" y2="314.315" gradientUnits="userSpaceOnUse">
<stop offset="0.1474"/>
<stop offset="0.1589" stop-color="#0C0C0C"/>
<stop offset="0.2098" stop-color="#3F3F3F"/>
<stop offset="0.2644" stop-color="#6D6D6D"/>
<stop offset="0.3216" stop-color="#949494"/>
<stop offset="0.3818" stop-color="#B5B5B5"/>
<stop offset="0.4461" stop-color="#D0D0D0"/>
<stop offset="0.5158" stop-color="#E5E5E5"/>
<stop offset="0.5938" stop-color="#F4F4F4"/>
<stop offset="0.6866" stop-color="#FCFCFC"/>
<stop offset="0.8327" stop-color="white"/>
</linearGradient>
<linearGradient id="paint2_linear_16_40" x1="187.54" y1="262.026" x2="207.107" y2="281.621" gradientUnits="userSpaceOnUse">
<stop stop-color="#333333"/>
<stop offset="1" stop-color="white" stop-opacity="0"/>
</linearGradient>
</defs>
</svg>
