<svg width="25" height="25" viewBox="0 0 25 25" fill="none" xmlns="http://www.w3.org/2000/svg">
<path d="M19.71 8.5L20.5 6.75L22.25 5.96C22.64 5.78 22.64 5.23 22.25 5.05L20.5 4.26L19.71 2.5C19.53 2.11 18.98 2.11 18.8 2.5L18.01 4.25L16.25 5.04C15.86 5.22 15.86 5.77 16.25 5.95L18 6.74L18.79 8.5C18.97 8.89 19.53 8.89 19.71 8.5ZM11.75 10L10.16 6.5C9.81004 5.72 8.69004 5.72 8.34004 6.5L6.75004 10L3.25004 11.59C2.47004 11.95 2.47004 13.06 3.25004 13.41L6.75004 15L8.34004 18.5C8.70004 19.28 9.81004 19.28 10.16 18.5L11.75 15L15.25 13.41C16.03 13.05 16.03 11.94 15.25 11.59L11.75 10ZM18.79 16.5L18 18.25L16.25 19.04C15.86 19.22 15.86 19.77 16.25 19.95L18 20.74L18.79 22.5C18.97 22.89 19.52 22.89 19.7 22.5L20.49 20.75L22.25 19.96C22.64 19.78 22.64 19.23 22.25 19.05L20.5 18.26L19.71 16.5C19.53 16.11 18.97 16.11 18.79 16.5Z" fill="#5D6585"/>
</svg>
